<?xml version="1.0" standalone="no"?><!DOCTYPE svg PUBLIC "-//W3C//DTD SVG 1.1//EN" "http://www.w3.org/Graphics/SVG/1.1/DTD/svg11.dtd"><svg t="1543273987704" class="icon" style="" viewBox="0 0 1024 1024" version="1.1" xmlns="http://www.w3.org/2000/svg" p-id="5082" xmlns:xlink="http://www.w3.org/1999/xlink" width="200" height="200"><defs><style type="text/css"></style></defs><path d="M506.56 804.69333333c-3.2 0-6.29333333-0.85333333-9.06666667-2.45333333l-28.8-17.06666667c-4.26666667-2.45333333-2.24-3.30666667-0.74666666-3.73333333 5.76-2.02666667 6.93333333-2.45333333 13.01333333-5.97333333 0.64-0.32 1.49333333-0.21333333 2.13333333 0.10666666l22.18666667 13.12c0.74666667 0.42666667 1.92 0.42666667 2.66666667 0l86.29333333-49.81333333c0.74666667-0.42666667 1.28-1.38666667 1.28-2.34666667v-99.62666666c0-0.96-0.53333333-1.92-1.38666667-2.34666667l-86.29333333-49.81333333c-0.74666667-0.42666667-1.81333333-0.42666667-2.66666667 0L418.98666667 634.66666667c-0.85333333 0.42666667-1.38666667 1.38666667-1.38666667 2.34666666v99.62666667c0 0.96 0.53333333 1.81333333 1.38666667 2.34666667l23.68 13.65333333c12.8 6.4 20.69333333-1.17333333 20.69333333-8.74666667v-98.34666666c0-1.38666667 1.06666667-2.45333333 2.45333333-2.45333334h10.88c1.38666667 0 2.45333333 1.06666667 2.45333334 2.45333334v98.34666666c0 17.06666667-9.28 26.98666667-25.6 26.98666667-5.01333333 0-8.96 0-19.94666667-5.44l-22.61333333-13.01333333c-5.54666667-3.2-9.06666667-9.28-9.06666667-15.78666667v-99.62666667c0-6.50666667 3.41333333-12.48 9.06666667-15.68l86.4-49.81333333c5.44-3.09333333 12.69333333-3.09333333 18.13333333 0l86.29333333 49.81333333c5.54666667 3.2 9.06666667 9.28 9.06666667 15.68v99.62666667c0 6.50666667-3.52 12.48-9.06666667 15.68L515.52 802.13333333c-2.66666667 1.70666667-5.86666667 2.45333333-8.96 2.56" fill="#689F63" p-id="5083"></path><path d="M533.22666667 736c-37.76 0-45.65333333-17.38666667-45.65333334-31.89333333 0-1.38666667 1.06666667-2.45333333 2.45333334-2.45333334h11.2c1.28 0 2.24 0.85333333 2.45333333 2.13333334 1.70666667 11.30666667 6.72 17.06666667 29.54666667 17.06666666 18.24 0 25.92-4.16 25.92-13.76 0-5.54666667-2.24-9.70666667-30.50666667-12.48-23.68-2.34666667-38.29333333-7.57333333-38.29333333-26.45333333 0-17.38666667 14.72-27.73333333 39.25333333-27.73333333 27.62666667 0 41.28 9.6 43.09333333 30.18666666 0.10666667 0.74666667-0.21333333 1.38666667-0.64 1.92-0.42666667 0.53333333-1.17333333 0.74666667-1.81333333 0.74666667h-11.2c-1.17333333 0-2.13333333-0.85333333-2.45333333-1.92-2.66666667-11.94666667-9.17333333-15.78666667-26.98666667-15.78666667-19.84 0-22.18666667 6.93333333-22.18666667 12.05333334 0 6.29333333 2.77333333 8.10666667 29.54666667 11.62666666 26.56 3.52 39.14666667 8.53333333 39.14666667 27.09333334 0 18.77333333-15.68 29.54666667-42.98666667 29.54666666m105.06666667-105.38666666h2.88c2.34666667 0 2.88-1.70666667 2.88-2.66666667 0-2.56-1.70666667-2.56-2.77333334-2.56h-2.98666666v5.22666667z m-3.52-8.10666667h6.4c2.24 0 6.50666667 0 6.50666666 4.90666667 0 3.41333333-2.24 4.16-3.52 4.58666666 2.56 0.21333333 2.77333333 1.81333333 3.09333334 4.26666667 0.21333333 1.49333333 0.42666667 4.05333333 0.96 4.90666667h-3.94666667c-0.10666667-0.85333333-0.74666667-5.65333333-0.74666667-5.86666667-0.21333333-1.06666667-0.64-1.6-1.92-1.6h-3.30666666v7.46666667H634.66666667v-18.66666667z m-7.68 9.28c0 7.78666667 6.29333333 13.97333333 13.86666666 13.97333333 7.78666667 0 13.97333333-6.4 13.97333334-13.97333333 0-7.78666667-6.29333333-13.86666667-13.97333334-13.86666667-7.57333333-0.10666667-13.97333333 5.97333333-13.86666666 13.86666667m30.50666666 0c0 9.17333333-7.46666667 16.64-16.64 16.64-9.06666667 0-16.64-7.36-16.64-16.64 0-9.38666667 7.78666667-16.64 16.64-16.64 8.96 0 16.64 7.25333333 16.64 16.64" fill="#689F63" p-id="5084"></path><path d="M239.25333333 414.93333333c0-3.94666667-2.13333333-7.57333333-5.54666666-9.6l-91.52-52.69333333c-1.49333333-0.96-3.30666667-1.38666667-5.01333334-1.49333333h-0.96c-1.70666667 0.10666667-3.52 0.53333333-5.01333333 1.49333333L39.68 405.33333333c-3.41333333 2.02666667-5.54666667 5.65333333-5.54666667 9.6l0.21333334 141.86666667c0 1.92 1.06666667 3.84 2.77333333 4.8 1.70666667 1.06666667 3.84 1.06666667 5.44 0l54.4-31.14666667c3.41333333-2.02666667 5.54666667-5.65333333 5.54666667-9.6v-66.24c0-3.94666667 2.13333333-7.57333333 5.54666666-9.6l23.14666667-13.33333333c1.70666667-0.96 3.62666667-1.49333333 5.54666667-1.49333333 1.92 0 3.84 0.53333333 5.54666666 1.49333333l23.14666667 13.33333333c3.41333333 1.92 5.54666667 5.65333333 5.54666667 9.6v66.24c0 3.94666667 2.13333333 7.57333333 5.54666666 9.6l54.4 31.14666667c1.70666667 1.06666667 3.84 1.06666667 5.54666667 0 1.70666667-0.96 2.77333333-2.77333333 2.77333333-4.8V414.93333333z m431.78666667 73.81333334c0 0.96-0.53333333 1.92-1.38666667 2.34666666l-31.46666666 18.13333334c-0.85333333 0.53333333-1.92 0.53333333-2.77333334 0l-31.46666666-18.13333334c-0.85333333-0.53333333-1.38666667-1.38666667-1.38666667-2.34666666v-36.26666667c0-0.96 0.53333333-1.92 1.38666667-2.34666667l31.46666666-18.13333333c0.85333333-0.53333333 1.92-0.53333333 2.77333334 0l31.46666666 18.13333333c0.85333333 0.53333333 1.38666667 1.38666667 1.38666667 2.34666667v36.26666667z m8.53333333-268.69333334c-1.70666667-0.96-3.84-0.96-5.54666666 0.10666667-1.70666667 0.96-2.77333333 2.77333333-2.77333334 4.8v140.48c0 1.38666667-0.74666667 2.66666667-1.92 3.30666667-1.17333333 0.64-2.66666667 0.64-3.84 0l-22.93333333-13.22666667c-3.41333333-2.02666667-7.57333333-2.02666667-11.09333333 0l-91.52 52.8c-3.41333333 1.92-5.54666667 5.65333333-5.54666667 9.6v105.70666667c0 3.94666667 2.13333333 7.57333333 5.54666667 9.6l91.52 52.90666666c3.41333333 1.92 7.57333333 1.92 11.09333333 0l91.52-52.90666666c3.41333333-2.02666667 5.54666667-5.65333333 5.54666667-9.6V260.05333333c0-4.05333333-2.13333333-7.68-5.65333334-9.70666666l-54.4-30.29333334z m304.74666667 231.46666667c3.41333333-2.02666667 5.54666667-5.65333333 5.54666667-9.6v-25.6c0-3.94666667-2.13333333-7.57333333-5.54666667-9.6l-90.98666667-52.8a10.88 10.88 0 0 0-11.09333333 0l-91.52 52.8c-3.41333333 2.02666667-5.54666667 5.65333333-5.54666667 9.6v105.6c0 3.94666667 2.13333333 7.68 5.54666667 9.6l90.98666667 51.84c3.30666667 1.92 7.46666667 1.92 10.88 0.10666667l55.04-30.61333334c1.70666667-0.96 2.88-2.77333333 2.88-4.8s-1.06666667-3.84-2.77333334-4.8l-92.05333333-52.8c-1.70666667-0.96-2.77333333-2.77333333-2.77333333-4.8v-33.17333333c0-2.02666667 1.06666667-3.84 2.77333333-4.8l28.69333333-16.53333333c1.70666667-0.96 3.84-0.96 5.54666667 0l28.69333333 16.53333333c1.70666667 0.96 2.77333333 2.77333333 2.77333334 4.8v26.02666667c0 1.92 1.06666667 3.84 2.77333333 4.8 1.70666667 0.96 3.84 0.96 5.54666667 0l54.61333333-31.78666667z" fill="#231815" p-id="5085"></path><path d="M886.50666667 446.61333333c0.64-0.42666667 1.49333333-0.42666667 2.13333333 0l17.6 10.13333334c0.64 0.42666667 1.06666667 1.06666667 1.06666667 1.81333333v20.26666667c0 0.74666667-0.42666667 1.49333333-1.06666667 1.81333333l-17.6 10.13333333c-0.64 0.42666667-1.49333333 0.42666667-2.13333333 0l-17.6-10.13333333c-0.64-0.42666667-1.06666667-1.06666667-1.06666667-1.81333333v-20.26666667c0-0.74666667 0.42666667-1.49333333 1.06666667-1.81333333l17.6-10.13333334zM485.86666667 409.17333333l-0.21333334-0.21333333c-0.10666667-0.10666667-0.21333333-0.21333333-0.42666666-0.32-0.21333333-0.21333333-0.53333333-0.42666667-0.74666667-0.64-0.10666667-0.10666667-0.10666667-0.10666667-0.21333333-0.10666667l-0.96-0.64-59.62666667-34.45333333-9.49333333-5.44-21.97333334-12.69333333c-0.96-0.53333333-1.92-0.85333333-2.88-1.17333334-0.85333333-0.21333333-1.70666667-0.32-2.56-0.32H385.70666667h-0.10666667c-0.21333333 0-0.42666667 0.10666667-0.64 0.10666667-0.21333333 0-0.42666667 0.10666667-0.53333333 0.10666667-0.21333333 0.10666667-0.53333333 0.10666667-0.74666667 0.21333333-0.10666667 0-0.32 0.10666667-0.42666667 0.10666667-0.32 0.10666667-0.53333333 0.21333333-0.74666666 0.32h-0.10666667c-0.32 0.10666667-0.64 0.32-0.96 0.53333333l-70.18666667 40.53333333-20.58666666 11.84-0.21333334 0.10666667c-3.41333333 1.92-5.54666667 5.54666667-5.54666666 9.49333333v105.17333334c0 2.45333333 0.85333333 4.8 2.24 6.72 0.21333333 0.32 0.53333333 0.64 0.85333333 0.96l0.21333333 0.21333333c0.21333333 0.21333333 0.53333333 0.42666667 0.74666667 0.74666667l0.21333333 0.21333333c0.32 0.32 0.74666667 0.53333333 1.17333334 0.74666667l79.36 45.86666666 11.73333333 6.72c0.96 0.53333333 1.92 0.96 2.98666667 1.17333334 0.21333333 0 0.42666667 0.10666667 0.53333333 0.10666666 0.32 0 0.53333333 0.10666667 0.85333333 0.10666667 0.32 0 0.53333333 0 0.85333334 0.10666667h0.32c0.42666667 0 0.74666667 0 1.17333333-0.10666667h0.42666667c0.32 0 0.64-0.10666667 0.96-0.21333333 0.10666667 0 0.21333333 0 0.32-0.10666667h0.21333333l0.96-0.32c0.10666667 0 0.10666667 0 0.21333333-0.10666667l1.28-0.64 90.98666667-52.58666666c2.77333333-1.6 4.69333333-4.48 5.33333333-7.57333334 0.10666667-0.64 0.21333333-1.28 0.21333334-1.92v-105.17333333c-0.21333333-2.88-1.28-5.54666667-3.2-7.46666667z" fill="#689F63" p-id="5086"></path></svg>