<?xml version="1.0" standalone="no"?><!DOCTYPE svg PUBLIC "-//W3C//DTD SVG 1.1//EN" "http://www.w3.org/Graphics/SVG/1.1/DTD/svg11.dtd"><svg t="1543273956392" class="icon" style="" viewBox="0 0 1024 1024" version="1.1" xmlns="http://www.w3.org/2000/svg" p-id="4721" xmlns:xlink="http://www.w3.org/1999/xlink" width="200" height="200"><defs><style type="text/css"></style></defs><path d="M837.4 720.7L525.1 897.3V759.8l194.6-107.1 117.7 68z m21.4-19.4V331.9l-114.2 66v237.5l114.2 65.9z m-673.4 19.4l312.3 176.7V759.8L303 652.7l-117.6 68zM164 701.3V331.9l114.2 66v237.5L164 701.3z m13.4-393.4l320.3-181.2v133L292.4 372.6l-1.6 0.9c0 0.1-113.4-65.6-113.4-65.6z m668 0L525.1 126.8v133l205.2 112.8 1.6 0.9 113.5-65.6z" fill="#8ED6FB" p-id="4722"></path><path d="M497.7 728.4l-192-105.6V413.7l192 110.9v203.8z m27.4 0l192-105.5V413.7l-192 110.9v203.8zM318.6 389.5l192.7-105.9L704 389.5 511.4 500.8 318.6 389.5z" fill="#1C78C0" p-id="4723"></path></svg>